<?xml version="1.0" encoding="UTF-8" standalone="no"?>
<!-- Created with Inkscape (http://www.inkscape.org/) -->

<svg
   width="96.213821mm"
   height="30.484529mm"
   viewBox="0 0 96.213821 30.484529"
   version="1.1"
   id="svg1"
   xml:space="preserve"
   inkscape:version="1.4 (86a8ad7, 2024-10-11)"
   sodipodi:docname="moustaches.svg"
   xmlns:inkscape="http://www.inkscape.org/namespaces/inkscape"
   xmlns:sodipodi="http://sodipodi.sourceforge.net/DTD/sodipodi-0.dtd"
   xmlns="http://www.w3.org/2000/svg"
   xmlns:svg="http://www.w3.org/2000/svg"><sodipodi:namedview
     id="namedview1"
     pagecolor="#505050"
     bordercolor="#eeeeee"
     borderopacity="1"
     inkscape:showpageshadow="0"
     inkscape:pageopacity="0"
     inkscape:pagecheckerboard="0"
     inkscape:deskcolor="#505050"
     inkscape:document-units="mm"
     showguides="true"
     inkscape:zoom="2"
     inkscape:cx="42.25"
     inkscape:cy="235.25"
     inkscape:window-width="1920"
     inkscape:window-height="1009"
     inkscape:window-x="-8"
     inkscape:window-y="-8"
     inkscape:window-maximized="1"
     inkscape:current-layer="layer1"><sodipodi:guide
       position="173.13781,-17.192399"
       orientation="1,0"
       id="guide1"
       inkscape:locked="false" /><inkscape:page
       x="0"
       y="0"
       width="96.213821"
       height="30.484529"
       id="page2"
       margin="0"
       bleed="0" /></sodipodi:namedview><defs
     id="defs1" /><g
     inkscape:label="Calque 1"
     inkscape:groupmode="layer"
     id="layer1"
     transform="translate(47.087631,-61.719898)"><path
       style="fill:#ff5555;fill-opacity:0.449275"
       d="M 48.999449,89.689253 C 47.848639,87.936152 45.277451,87.339506 44.38178,85.26246 42.509232,82.242831 42.70414,78.427463 40.992037,75.304895 38.870422,70.717438 35.668936,66.317718 31.018634,64.125483 26.19762,61.415786 20.316524,61.425463 14.956266,62.088938 c -3.103202,0.301672 -5.9585783,1.641056 -8.3040788,3.655846 -3.5055559,1.951719 -8.1224009,1.741934 -11.4318231,-0.179902 -4.002487,-4.13373 -10.2220611,-3.630307 -15.4903771,-3.550867 -10.15919,0.225543 -18.752953,8.941296 -20.064259,18.798118 -0.157628,4.015323 -3.524575,6.640821 -6.604128,8.631051 -1.241346,4.071896 5.599976,2.536926 7.996176,2.188106 2.724123,-0.59531 5.23962,-1.603596 7.712306,-3.211687 5.733406,-4.178695 11.459735,-9.287119 18.762684,-10.432391 6.5683908,-1.419381 13.33939076,-1.09205 20.0068536,-0.977305 6.2260784,0.50692 12.8599674,1.367403 17.8668294,5.461456 4.696558,2.986653 8.656782,7.311348 14.227999,8.702682 2.907568,0.455555 7.272348,2.222665 9.428283,-0.516642 l 0.06346,-0.42347 -0.126886,-0.54523 z"
       id="path2-8"
       sodipodi:nodetypes="cccccccccccccccccccc"
       inkscape:export-filename="moustache03.svg"
       inkscape:export-xdpi="96"
       inkscape:export-ydpi="96" /></g></svg>
