<?xml version="1.0" encoding="UTF-8" standalone="no"?>
<!-- Created with Inkscape (http://www.inkscape.org/) -->

<svg
   width="101.876mm"
   height="27.524242mm"
   viewBox="0 0 101.876 27.524242"
   version="1.1"
   id="svg1"
   xml:space="preserve"
   xmlns="http://www.w3.org/2000/svg"
   xmlns:svg="http://www.w3.org/2000/svg"><defs
     id="defs1" /><g
     id="layer1"
     transform="translate(50.938)"><path
       id="path2-4-7"
       style="opacity:0.493151;fill:#ff5555;stroke:none;stroke-width:0.999998;stroke-opacity:1"
       d="m 9.966601,0.00215236 c -3.143109,0.043 -6.311158,0.52814 -9.232388,1.72266004 -3.752398,-0.50959 -7.409015,-2.05639004 -11.254992,-1.59815004 -5.077442,0.25353 -10.423934,0.88292004 -14.748829,3.77979004 -2.765921,2.00195 -4.978523,4.66302 -7.702704,6.7215096 -2.571901,2.0107 -5.87636,3.58805 -9.212117,2.89411 -2.590371,-0.45967 -5.138713,-1.52624 -7.815563,-1.18984 -1.176836,1.38826 -1.190146,3.43188 -0.352929,4.98991 1.252125,2.45762 3.347338,4.39953 5.600961,5.93978 4.538013,2.86662 9.984594,3.95349 15.289006,4.0957 5.431672,0.053 10.583594,-1.95823 15.633407,-3.7219 4.608084,-1.66299 9.179368,-3.44925 13.604773,-5.5574 3.675617,1.04537 6.971136,3.07328 10.610053,4.22726 5.94937,2.17914 11.943449,4.57842 18.298828,5.21866 5.58229,-0.004 11.447194,-0.7739 16.202768,-3.91141 1.939833,-1.29512 3.571058,-3.04073 4.869575,-4.96972 0.91364,-1.40409 1.42095,-3.1382 1.06939,-4.80697 -1.57136,-1.1446 -3.634203,-0.81417 -5.361977,-0.27022 -1.900703,0.56362 -3.939266,1.31875 -5.91729,0.63322 -4.158029,-1.09216 -7.205959,-4.3355499 -10.260638,-7.1541596 -2.006754,-1.93124 -4.215196,-3.71729 -6.827187,-4.75962 C 19.03069,0.88426236 15.329012,0.19674236 11.640195,0.02112236 c -0.557708,-0.0191 -1.115586,-0.0247 -1.673594,-0.019 z" /></g></svg>
