<?xml version="1.0" encoding="UTF-8" standalone="no"?>
<!-- Created with Inkscape (http://www.inkscape.org/) -->

<svg
   width="90.9188mm"
   height="25.353086mm"
   viewBox="0 0 90.9188 25.353086"
   version="1.1"
   id="svg1"
   xml:space="preserve"
   xmlns="http://www.w3.org/2000/svg"
   xmlns:svg="http://www.w3.org/2000/svg"><defs
     id="defs1" /><g
     id="layer1"
     transform="translate(45.456816,-32.291297)"><path
       id="path2-2-4"
       style="opacity:0.415525;fill:#ff5555"
       d="m -9.5694421,32.292086 c -0.4660499,-0.0048 -0.9339349,0.01216 -1.4040489,0.05374 -5.494315,0.235064 -10.468392,3.076856 -14.708663,6.383073 -4.101527,3.28944 -9.162105,7.403544 -12.458154,9.687264 -3.29605,2.28372 -5.046732,2.416849 -6.732406,4.70979 -0.243633,0.436919 -0.854654,1.039168 -0.448034,1.510503 1.200252,1.57956 3.405177,1.679625 5.189864,1.287776 5.278631,-1.057163 6.904519,-2.301851 8.355045,-2.225187 -0.177655,1.15656 -1.526332,2.100106 -1.019576,3.353284 0.614442,0.951849 1.927626,0.524397 2.82205,0.297139 1.621932,-0.481266 3.153709,-1.227613 4.795573,-1.638143 1.963828,-0.721805 3.56287,-2.134366 5.650301,-2.458248 0.393052,-0.02089 0.986746,-0.07449 0.894519,0.476457 0.19718,1.160589 1.647349,1.572064 2.57452,0.984436 0.779912,-0.523645 1.59871,-0.96493 2.470134,-1.331702 4.484146,-2.146328 8.7210891,-4.814819 12.5485881,-7.988659 0.34026567,-0.244308 0.69339833,-0.306162 1.04231367,-0.271301 0.348915,-0.03486 0.70204867,0.02699 1.04231363,0.271301 3.8274991,3.17384 8.0644423,5.842331 12.5485876,7.988659 0.871425,0.366772 1.690221,0.808057 2.470133,1.331702 0.927171,0.587628 2.37734,0.176153 2.57452,-0.984436 -0.09223,-0.550947 0.501467,-0.497347 0.894519,-0.476457 2.087431,0.323882 3.686473,1.736443 5.650301,2.458248 1.641864,0.41053 3.173641,1.156877 4.795573,1.638143 0.894424,0.227258 2.207608,0.65471 2.82205,-0.297139 0.506756,-1.253178 -0.841921,-2.196724 -1.019576,-3.353284 1.450526,-0.07666 3.076415,1.168024 8.355046,2.225187 1.784687,0.391849 3.989612,0.291784 5.189864,-1.287776 0.40662,-0.471335 -0.204402,-1.073584 -0.448035,-1.510503 -1.685674,-2.292941 -3.436355,-2.42607 -6.732405,-4.70979 -3.296049,-2.28372 -8.356628,-6.397824 -12.458155,-9.687264 -4.240271,-3.306217 -9.214346,-6.148009 -14.708662,-6.383073 -0.470114,-0.04158 -0.937999,-0.05854 -1.4040487,-0.05374 -3.262347,0.03363 -6.428003,1.114308 -9.5405029,1.984375 -0.0189307,0.0012 -0.0420493,0 -0.0630452,0 -3.1124994,-0.870069 -6.2781556,-1.950744 -9.5405033,-1.984375 z" /></g></svg>
